#!OML:ASF X:\für Bonn\!DataBase\2005_08_12_Daniel\c3d\Daniel.ASF
:FULLY-SPECIFIED
:DEGREES
342
root 14.9774 1.23416 1.00625 -705.506 -84.8126 -131.76
lowerback 30.0686 -3.88413 5.48731
upperback 13.0988 -4.88751 -0.164541
thorax -2.02598 -2.95238 -1.78767
lowerneck 7.42286 3.04848 -7.00039
upperneck 10.5773 3.32623 1.26513
head 1.95515 1.27711 1.56094
rclavicle 8.74653e-015 -1.17283e-014
rhumerus -31.4562 -35.2712 -68.562
rradius 5.64734
rwrist 63.5307
rhand -12.1945 -353.317
rfingers 7.12502
rthumb 13.8696 -382.835
lclavicle 8.74653e-015 -1.17283e-014
lhumerus -392.888 12.2298 -282.842
lradius 26.467
lwrist -42.448
lhand -3.15952 356.227
lfingers 7.12502
lthumb 22.5609 384.929
rfemur 173.019 -172.272 189.753
rtibia 75.6392
rfoot 14.0412 7.65806
rtoes 2.16304
lfemur -9.75967 -2.36899 -7.72964
ltibia 74.1793
lfoot 27.3539 -0.313894
ltoes 3.28852
343
root 14.9863 1.23578 1.01274 -706.655 -84.718 -130.758
lowerback 30.2371 -3.87895 5.43642
upperback 12.9012 -4.85603 -0.154663
thorax -2.32194 -2.93418 -1.73659
lowerneck 7.3536 2.9603 -7.27928
upperneck 10.033 3.19646 1.49319
head 1.78742 1.2301 1.67958
rclavicle -5.56597e-014 9.30312e-014
rhumerus -31.8576 -35.0699 -68.1327
rradius 5.53488
rwrist 63.9759
rhand -12.1714 -353.479
rfingers 7.12502
rthumb 13.8918 -382.995
lclavicle -5.56597e-014 9.30312e-014
lhumerus -393.326 12.5808 -283.237
lradius 26.1822
lwrist -43.314
lhand -3.24797 356.06
lfingers 7.12502
lthumb 22.476 384.772
rfemur 173.254 -172.234 189.64
rtibia 75.5829
rfoot 13.788 7.6996
rtoes 1.60481
lfemur -9.49114 -2.23975 -7.71315
ltibia 73.9303
lfoot 27.6066 -0.461072
ltoes 3.10964
344
root 14.9953 1.23754 1.01919 -707.731 -84.6122 -129.826
lowerback 30.3977 -3.88189 5.40619
upperback 12.7078 -4.83114 -0.156684
thorax -2.61216 -2.91793 -1.70917
lowerneck 7.33015 2.88522 -7.55259
upperneck 9.48339 3.07982 1.74641
head 1.61084 1.18966 1.80554
rclavicle 3.26007e-014 -1.07145e-013
rhumerus -32.323 -34.8663 -67.705
rradius 5.51385
rwrist 64.3924
rhand -12.1005 -353.556
rfingers 7.12502
rthumb 13.9602 -383.068
lclavicle 3.26007e-014 -1.07145e-013
lhumerus -393.755 12.9594 -283.685
lradius 25.87
lwrist -44.1942
lhand -3.30852 355.904
lfingers 7.12502
lthumb 22.4178 384.623
rfemur 173.503 -172.181 189.538
rtibia 75.5074
rfoot 13.5969 7.72111
rtoes 0.876953
lfemur -9.2284 -2.12814 -7.68983
ltibia 73.6769
lfoot 27.8896 -0.576772
ltoes 3.09848
345
root 15.0019 1.23902 1.0253 -708.888 -84.5322 -128.79
lowerback 30.5188 -3.87085 5.33615
upperback 12.5304 -4.80385 -0.164397
thorax -2.86486 -2.90129 -1.66985
lowerneck 7.30803 2.82396 -7.81564
upperneck 8.9384 2.98316 2.00865
head 1.43575 1.15912 1.93367
rclavicle 5.56597e-015 2.83268e-014
rhumerus -32.8195 -34.6274 -67.2728
rradius 5.55836
rwrist 64.7547
rhand -12.0887 -353.518
rfingers 7.12502
rthumb 13.9715 -383.028
lclavicle 5.56597e-015 2.83268e-014
lhumerus -394.184 13.2574 -284.088
lradius 25.5919
lwrist -44.8643
lhand -3.39984 355.842
lfingers 7.12502
lthumb 22.3302 384.571
rfemur 173.723 -172.169 189.425
rtibia 75.4198
rfoot 13.4975 7.68387
rtoes 0.311287
lfemur -8.98227 -2.00079 -7.68914
ltibia 73.4252
lfoot 28.1855 -0.66555
ltoes 3.06752
346
root 15.0074 1.24032 1.03137 -709.717 -84.4302 -128.06
lowerback 30.6309 -3.87241 5.29232
upperback 12.3354 -4.7839 -0.150587
thorax -3.13343 -2.88752 -1.61906
lowerneck 7.34296 2.7809 -8.14279
upperneck 8.36714 2.9016 2.27936
head 1.24192 1.13383 2.07607
rclavicle -7.95139e-016 -2.75317e-014
rhumerus -33.5145 -34.287 -66.7025
rradius 5.8271
rwrist 64.9335
rhand -12.0774 -353.269
rfingers 7.12502
rthumb 13.9824 -382.778
lclavicle -7.95139e-016 -2.75317e-014
lhumerus -394.626 13.5571 -284.483
lradius 25.2871
lwrist -45.4824
lhand -3.56285 355.898
lfingers 7.12502
lthumb 22.1737 384.647
rfemur 173.942 -172.136 189.351
rtibia 75.3117
rfoot 13.4527 7.64091
rtoes -0.121177
lfemur -8.77433 -1.88673 -7.66156
ltibia 73.194
lfoot 28.4904 -0.788754
ltoes 2.99933
347
root 15.0122 1.2416 1.03692 -710.755 -84.3266 -127.098
lowerback 30.7192 -3.86978 5.25467
upperback 12.1529 -4.75987 -0.167318
thorax -3.38006 -2.86984 -1.60915
lowerneck 7.35206 2.73364 -8.40978
upperneck 7.83191 2.82158 2.55908
head 1.06502 1.10996 2.21311
rclavicle 1.39149e-014 -1.8487e-014
rhumerus -34.3247 -33.968 -66.1219
rradius 6.22915
rwrist 64.995
rhand -12.1381 -352.873
rfingers 7.12502
rthumb 13.9239 -382.387
lclavicle 1.39149e-014 -1.8487e-014
lhumerus -395.031 13.7161 -284.874
lradius 24.9817
lwrist -45.9145
lhand -3.78396 356.018
lfingers 7.12502
lthumb 21.9614 384.791
rfemur 174.165 -172.118 189.265
rtibia 75.182
rfoot 13.496 7.57296
rtoes -0.449999
lfemur -8.6107 -1.76933 -7.64731
ltibia 72.9815
lfoot 28.8268 -0.950478
ltoes 2.99967
348
root 15.0169 1.24337 1.04201 -711.677 -84.2344 -126.249
lowerback 30.8052 -3.86252 5.19204
upperback 11.9797 -4.73904 -0.168407
thorax -3.61237 -2.85563 -1.56757
lowerneck 7.40919 2.70582 -8.68097
upperneck 7.2495 2.76504 2.80724
head 0.864199 1.09795 2.34033
rclavicle -1.20861e-013 3.03842e-013
rhumerus -35.1994 -33.5741 -65.5082
rradius 6.72562
rwrist 64.8974
rhand -12.2685 -352.278
rfingers 7.12502
rthumb 13.7983 -381.8
lclavicle -1.20861e-013 3.03842e-013
lhumerus -395.408 13.9639 -285.275
lradius 24.6292
lwrist -46.2753
lhand -4.08846 356.24
lfingers 7.12502
lthumb 21.669 385.048
rfemur 174.397 -172.111 189.19
rtibia 75.0196
rfoot 13.6673 7.44004
rtoes -0.416847
lfemur -8.44539 -1.64837 -7.62836
ltibia 72.778
lfoot 29.184 -1.05206
ltoes 2.95414
349
root 15.0216 1.24523 1.04744 -712.427 -84.1457 -125.534
lowerback 30.8771 -3.85686 5.14505
upperback 11.7899 -4.71441 -0.169066
thorax -3.8579 -2.83798 -1.53586
lowerneck 7.43879 2.68056 -8.91104
upperneck 6.71836 2.71883 3.00964
head 0.685153 1.08987 2.44674
rclavicle 3.29983e-014 -4.56211e-014
rhumerus -36.1007 -33.1675 -64.8973
rradius 7.20671
rwrist 64.7248
rhand -12.5589 -351.63
rfingers 7.12502
rthumb 13.5184 -381.171
lclavicle 3.29983e-014 -4.56211e-014
lhumerus -395.79 14.2533 -285.702
lradius 24.2247
lwrist -46.6336
lhand -4.48512 356.385
lfingers 7.12502
lthumb 21.288 385.236
rfemur 174.604 -172.112 189.134
rtibia 74.816
rfoot 13.9413 7.31299
rtoes -0.337613
lfemur -8.32432 -1.53385 -7.60832
ltibia 72.5912
lfoot 29.5822 -1.16559
ltoes 3.00757
350
root 15.0291 1.24768 1.05196 -713.289 -84.053 -124.713
lowerback 30.949 -3.85086 5.07549
upperback 11.6107 -4.69815 -0.168876
thorax -4.09063 -2.82564 -1.48823
lowerneck 7.39282 2.67105 -9.13282
upperneck 6.30469 2.70153 3.18415
head 0.555356 1.09285 2.54442
rclavicle -3.65764e-014 -7.45443e-015
rhumerus -36.9107 -32.783 -64.3722
rradius 7.55813
rwrist 64.4775
rhand -12.9571 -350.991
rfingers 7.12502
rthumb 13.1346 -380.558
lclavicle -3.65764e-014 -7.45443e-015
lhumerus -396.2 14.4745 -286.103
lradius 23.8725
lwrist -46.8681
lhand -4.91606 356.611
lfingers 7.12502
lthumb 20.8741 385.508
rfemur 174.864 -172.131 189.087
rtibia 74.5573
rfoot 14.2981 7.12476
rtoes 0.114142
lfemur -8.18588 -1.45019 -7.61206
ltibia 72.3885
lfoot 30.0095 -1.26769
ltoes 3.01694
351
root 15.0367 1.24954 1.05707 -714.088 -83.9536 -123.937
lowerback 31.0096 -3.85304 5.01966
upperback 11.4386 -4.69092 -0.175265
thorax -4.31196 -2.81732 -1.45371
lowerneck 7.18708 2.64599 -9.28525
upperneck 6.08884 2.68412 3.30568
head 0.518108 1.09219 2.61515
rclavicle 1.03368e-013 -1.10226e-013
rhumerus -37.5841 -32.4294 -63.926
rradius 7.73387
rwrist 64.2318
rhand -13.5157 -350.352
rfingers 7.12502
rthumb 12.5961 -379.952
lclavicle 1.03368e-013 -1.10226e-013
lhumerus -396.619 14.5878 -286.474
lradius 23.5656
lwrist -46.9766
lhand -5.28296 356.762
lfingers 7.12502
lthumb 20.5215 385.697
rfemur 175.118 -172.13 189.039
rtibia 74.2581
rfoot 14.7257 6.95021
rtoes 0.427976
lfemur -8.06062 -1.40449 -7.63119
ltibia 72.1639
lfoot 30.4927 -1.31445
ltoes 2.94806
352
root 15.0438 1.252 1.06042 -714.88 -83.8621 -123.137
lowerback 31.0547 -3.84125 4.95979
upperback 11.2549 -4.66573 -0.193276
thorax -4.53948 -2.79849 -1.43653
lowerneck 7.01794 2.61526 -9.36256
upperneck 5.83528 2.66218 3.38648
head 0.464506 1.09153 2.65766
rclavicle 2.38542e-015 3.48867e-014
rhumerus -38.2087 -32.1543 -63.552
rradius 7.76512
rwrist 64.0525
rhand -14.152 -349.766
rfingers 7.12502
rthumb 11.9826 -379.403
lclavicle 2.38542e-015 3.48867e-014
lhumerus -397.058 14.5891 -286.832
lradius 23.2811
lwrist -47.009
lhand -5.62404 356.911
lfingers 7.12502
lthumb 20.1937 385.882
rfemur 175.352 -172.173 189.015
rtibia 73.9304
rfoot 15.2657 6.70163
rtoes 1.04107
lfemur -7.91785 -1.36995 -7.67511
ltibia 71.8794
lfoot 31.0354 -1.3116
ltoes 2.90466
353
root 15.0485 1.25441 1.06431 -715.363 -83.7703 -122.66
lowerback 31.1172 -3.84665 4.91513
upperback 11.078 -4.65983 -0.194635
thorax -4.76734 -2.79064 -1.4022
lowerneck 6.82362 2.60204 -9.51576
upperneck 5.6003 2.66073 3.47872
head 0.418739 1.09909 2.71825
rclavicle -6.83819e-014 8.92543e-014
rhumerus -38.7644 -31.8198 -63.1999
rradius 7.75147
rwrist 63.9478
rhand -14.7495 -349.162
rfingers 7.12502
rthumb 11.4063 -378.832
lclavicle -6.83819e-014 8.92543e-014
lhumerus -397.524 14.6115 -287.184
lradius 23.022
lwrist -47.0718
lhand -5.92538 356.889
lfingers 7.12502
lthumb 19.9041 385.89
rfemur 175.587 -172.23 189.036
rtibia 73.5821
rfoot 15.9565 6.52077
rtoes 2.01571
lfemur -7.72524 -1.38186 -7.70514
ltibia 71.5506
lfoot 31.6995 -1.18041
ltoes 2.88383
354
root 15.0522 1.25679 1.06846 -716.077 -83.6917 -121.914
lowerback 31.1198 -3.83684 4.8617
upperback 10.92 -4.64161 -0.219817
thorax -4.94776 -2.77516 -1.39828
lowerneck 6.60969 2.56867 -9.58666
upperneck 5.3585 2.64121 3.53644
head 0.377087 1.09963 2.75243
rclavicle 4.21423e-014 -1.11816e-013
rhumerus -39.3155 -31.5405 -62.8753
rradius 7.70409
rwrist 63.9877
rhand -15.4585 -348.585
rfingers 7.12502
rthumb 10.7225 -378.291
lclavicle 4.21423e-014 -1.11816e-013
lhumerus -397.954 14.664 -287.572
lradius 22.7856
lwrist -47.2467
lhand -6.10061 356.804
lfingers 7.12502
lthumb 19.7356 385.823
rfemur 175.786 -172.297 189.023
rtibia 73.2084
rfoot 16.7907 6.26842
rtoes 3.12906
lfemur -7.55541 -1.43547 -7.80379
ltibia 71.1911
lfoot 32.4775 -0.86835
ltoes 2.77109
355
root 15.0558 1.25941 1.07171 -716.525 -83.5978 -121.436
lowerback 31.1554 -3.83293 4.83285
upperback 10.7391 -4.61927 -0.229227
thorax -5.1688 -2.75741 -1.3894
lowerneck 6.43965 2.54384 -9.63484
upperneck 5.12239 2.62974 3.55845
head 0.330177 1.10355 2.76958
rclavicle -4.8901e-014 7.63333e-014
rhumerus -39.8864 -31.2691 -62.552
rradius 7.6362
rwrist 64.1585
rhand -16.131 -348.166
rfingers 7.12502
rthumb 10.0737 -377.905
lclavicle -4.8901e-014 7.63333e-014
lhumerus -398.383 14.9055 -288.05
lradius 22.4685
lwrist -47.6885
lhand -6.23588 356.584
lfingers 7.12502
lthumb 19.6056 385.616
rfemur 176.008 -172.366 189.064
rtibia 72.7896
rfoot 17.7382 5.98165
rtoes 4.068
lfemur -7.37211 -1.50085 -7.87059
ltibia 70.8015
lfoot 33.3266 -0.546909
ltoes 2.7532
356
root 15.0604 1.26191 1.07507 -717.135 -83.5033 -120.782
lowerback 31.1572 -3.83004 4.76012
upperback 10.5845 -4.6171 -0.234435
thorax -5.34301 -2.75129 -1.34702
lowerneck 6.18812 2.52087 -9.70855
upperneck 4.91218 2.628 3.57773
head 0.304743 1.11193 2.79143
rclavicle 6.2816e-014 -4.15957e-014
rhumerus -40.3437 -30.9739 -62.2825
rradius 7.54191
rwrist 64.4253
rhand -16.7515 -347.763
rfingers 7.12502
rthumb 9.47508 -377.53
lclavicle 6.2816e-014 -4.15957e-014
lhumerus -398.795 15.3261 -288.586
lradius 22.1696
lwrist -48.313
lhand -6.26325 356.269
lfingers 7.12502
lthumb 19.5793 385.303
rfemur 176.231 -172.464 189.108
rtibia 72.3289
rfoot 18.7366 5.64271
rtoes 4.64133
lfemur -7.16922 -1.60727 -7.98124
ltibia 70.3731
lfoot 34.2137 -0.0868051
ltoes 2.83505
